<?xml version="1.0" standalone="no"?><!DOCTYPE svg PUBLIC "-//W3C//DTD SVG 1.1//EN" "http://www.w3.org/Graphics/SVG/1.1/DTD/svg11.dtd"><svg width="100%" height="100%" viewBox="0 0 34 30" version="1.1" xmlns="http://www.w3.org/2000/svg" xmlns:xlink="http://www.w3.org/1999/xlink" xml:space="preserve" style="fill-rule:evenodd;clip-rule:evenodd;stroke-linejoin:round;stroke-miterlimit:1.41421;"><g><path d="M6.75,24.75c-0.346,0 -0.685,-0.058 -1.007,-0.173c-1.192,-0.424 -1.993,-1.56 -1.993,-2.827c0,-1.374 0.928,-2.535 2.191,-2.889l-1.395,-16.055l-4.033,-1.345c-0.393,-0.13 -0.605,-0.555 -0.474,-0.948c0.13,-0.393 0.553,-0.606 0.948,-0.474l4.5,1.5c0.283,0.095 0.484,0.349 0.51,0.646l1.5,17.25c0.019,0.209 -0.052,0.417 -0.194,0.572c-0.142,0.156 -0.343,0.243 -0.553,0.243c-0.827,0 -1.5,0.673 -1.5,1.5c0,0.634 0.4,1.203 0.997,1.414c0.16,0.058 0.33,0.086 0.503,0.086c0.415,0 0.75,0.336 0.75,0.75c0,0.415 -0.335,0.75 -0.75,0.75" style="fill:#232323;fill-rule:nonzero;"/><path d="M29.593,24.751l-22.5,0c-0.414,0 -0.75,-0.336 -0.75,-0.75c0,-0.415 0.336,-0.75 0.75,-0.75l22.5,0c0.415,0 0.75,0.335 0.75,0.75c0,0.414 -0.335,0.75 -0.75,0.75" style="fill:#232323;fill-rule:nonzero;"/><path d="M24.75,24.75c-0.827,0 -1.5,0.673 -1.5,1.5c0,0.828 0.673,1.5 1.5,1.5c0.827,0 1.5,-0.672 1.5,-1.5c0,-0.827 -0.673,-1.5 -1.5,-1.5M24.75,29.25c-1.655,0 -3,-1.345 -3,-3c0,-1.654 1.345,-3 3,-3c1.654,0 3,1.346 3,3c0,1.655 -1.346,3 -3,3" style="fill:#232323;fill-rule:nonzero;"/><path d="M9,24.75c-0.827,0 -1.5,0.673 -1.5,1.5c0,0.828 0.673,1.5 1.5,1.5c0.827,0 1.5,-0.672 1.5,-1.5c0,-0.827 -0.673,-1.5 -1.5,-1.5M9,29.25c-1.655,0 -3,-1.345 -3,-3c0,-1.654 1.345,-3 3,-3c1.654,0 3,1.346 3,3c0,1.655 -1.346,3 -3,3" style="fill:#232323;fill-rule:nonzero;"/><path d="M29.25,20.251l-22.157,0c-0.414,0 -0.75,-0.336 -0.75,-0.75c0,-0.415 0.336,-0.75 0.75,-0.75l21.589,0l3.017,-10.704c0.113,-0.398 0.529,-0.63 0.926,-0.519c0.398,0.113 0.631,0.528 0.518,0.926l-3.171,11.25c-0.091,0.323 -0.386,0.547 -0.722,0.547" style="fill:#232323;fill-rule:nonzero;"/><path d="M31.501,11.25c-0.036,0 -0.073,-0.002 -0.11,-0.008l-25.5,-3.75c-0.41,-0.06 -0.693,-0.441 -0.633,-0.851c0.06,-0.409 0.43,-0.697 0.851,-0.632l25.5,3.75c0.41,0.06 0.693,0.441 0.633,0.851c-0.055,0.373 -0.375,0.64 -0.741,0.64" style="fill:#232323;fill-rule:nonzero;"/><path d="M30.751,14.25c-0.038,0 -0.075,-0.003 -0.113,-0.009l-24.75,-3.75c-0.41,-0.061 -0.691,-0.444 -0.629,-0.852c0.061,-0.411 0.444,-0.693 0.853,-0.63l24.75,3.75c0.41,0.062 0.691,0.444 0.629,0.853c-0.056,0.373 -0.376,0.638 -0.74,0.638" style="fill:#232323;fill-rule:nonzero;"/></g></svg>