<?xml version="1.0" standalone="no"?><!DOCTYPE svg PUBLIC "-//W3C//DTD SVG 1.1//EN" "http://www.w3.org/Graphics/SVG/1.1/DTD/svg11.dtd"><svg width="100%" height="100%" viewBox="0 0 33 31" version="1.1" xmlns="http://www.w3.org/2000/svg" xmlns:xlink="http://www.w3.org/1999/xlink" xml:space="preserve" style="fill-rule:evenodd;clip-rule:evenodd;stroke-linejoin:round;stroke-miterlimit:1.41421;"><g><path d="M1.5,25.5l30,0l0,-4.5l-30,0l0,4.5ZM32.25,27l-31.5,0c-0.415,0 -0.75,-0.336 -0.75,-0.75l0,-6c0,-0.415 0.335,-0.75 0.75,-0.75l31.5,0c0.414,0 0.75,0.335 0.75,0.75l0,6c0,0.414 -0.336,0.75 -0.75,0.75" style="fill:#232323;fill-rule:nonzero;"/><path d="M29.249,23.25c0,-0.829 -0.671,-1.5 -1.5,-1.5c-0.828,0 -1.5,0.671 -1.5,1.5c0,0.829 0.672,1.5 1.5,1.5c0.829,0 1.5,-0.671 1.5,-1.5" style="fill:#232323;fill-rule:nonzero;"/><path d="M23.999,23.25c0,-0.829 -0.671,-1.5 -1.5,-1.5c-0.828,0 -1.5,0.671 -1.5,1.5c0,0.829 0.672,1.5 1.5,1.5c0.829,0 1.5,-0.671 1.5,-1.5" style="fill:#232323;fill-rule:nonzero;"/><path d="M16.093,24l-12,0c-0.415,0 -0.75,-0.335 -0.75,-0.75c0,-0.415 0.335,-0.75 0.75,-0.75l12,0c0.415,0 0.75,0.335 0.75,0.75c0,0.415 -0.335,0.75 -0.75,0.75" style="fill:#232323;fill-rule:nonzero;"/><path d="M1.5,15.75l30,0l0,-4.5l-30,0l0,4.5ZM32.25,17.25l-31.5,0c-0.415,0 -0.75,-0.336 -0.75,-0.75l0,-6c0,-0.415 0.335,-0.75 0.75,-0.75l31.5,0c0.414,0 0.75,0.335 0.75,0.75l0,6c0,0.414 -0.336,0.75 -0.75,0.75" style="fill:#232323;fill-rule:nonzero;"/><path d="M29.249,13.5c0,-0.829 -0.671,-1.5 -1.5,-1.5c-0.828,0 -1.5,0.671 -1.5,1.5c0,0.829 0.672,1.5 1.5,1.5c0.829,0 1.5,-0.671 1.5,-1.5" style="fill:#232323;fill-rule:nonzero;"/><path d="M23.999,13.5c0,-0.829 -0.671,-1.5 -1.5,-1.5c-0.828,0 -1.5,0.671 -1.5,1.5c0,0.829 0.672,1.5 1.5,1.5c0.829,0 1.5,-0.671 1.5,-1.5" style="fill:#232323;fill-rule:nonzero;"/><path d="M16.093,14.25l-12,0c-0.415,0 -0.75,-0.335 -0.75,-0.75c0,-0.415 0.335,-0.75 0.75,-0.75l12,0c0.415,0 0.75,0.335 0.75,0.75c0,0.415 -0.335,0.75 -0.75,0.75" style="fill:#232323;fill-rule:nonzero;"/><path d="M1.5,6l30,0l0,-4.5l-30,0l0,4.5ZM32.25,7.5l-31.5,0c-0.415,0 -0.75,-0.336 -0.75,-0.75l0,-6c0,-0.415 0.335,-0.75 0.75,-0.75l31.5,0c0.414,0 0.75,0.335 0.75,0.75l0,6c0,0.414 -0.336,0.75 -0.75,0.75" style="fill:#232323;fill-rule:nonzero;"/><path d="M29.249,3.75c0,-0.829 -0.671,-1.5 -1.5,-1.5c-0.828,0 -1.5,0.671 -1.5,1.5c0,0.829 0.672,1.5 1.5,1.5c0.829,0 1.5,-0.671 1.5,-1.5" style="fill:#232323;fill-rule:nonzero;"/><path d="M23.999,3.75c0,-0.829 -0.671,-1.5 -1.5,-1.5c-0.828,0 -1.5,0.671 -1.5,1.5c0,0.829 0.672,1.5 1.5,1.5c0.829,0 1.5,-0.671 1.5,-1.5" style="fill:#232323;fill-rule:nonzero;"/><path d="M16.093,4.5l-12,0c-0.415,0 -0.75,-0.335 -0.75,-0.75c0,-0.415 0.335,-0.75 0.75,-0.75l12,0c0.415,0 0.75,0.335 0.75,0.75c0,0.415 -0.335,0.75 -0.75,0.75" style="fill:#232323;fill-rule:nonzero;"/><rect x="4.313" y="26.25" width="1.5" height="3.75" style="fill:#232323;fill-rule:nonzero;"/><rect x="28.313" y="26.25" width="1.5" height="3.75" style="fill:#232323;fill-rule:nonzero;"/><rect x="4.313" y="16.5" width="1.5" height="3.75" style="fill:#232323;fill-rule:nonzero;"/><rect x="28.313" y="16.5" width="1.5" height="3.75" style="fill:#232323;fill-rule:nonzero;"/><rect x="4.313" y="6.75" width="1.5" height="3.75" style="fill:#232323;fill-rule:nonzero;"/><rect x="28.313" y="6.75" width="1.5" height="3.75" style="fill:#232323;fill-rule:nonzero;"/><rect x="2.813" y="29.25" width="4.5" height="1.5" style="fill:#232323;fill-rule:nonzero;"/><rect x="26.813" y="29.25" width="4.5" height="1.5" style="fill:#232323;fill-rule:nonzero;"/></g></svg>