<svg width="100%" height="100%" viewBox="0 0 27 34" version="1.1" xmlns="http://www.w3.org/2000/svg" xmlns:xlink="http://www.w3.org/1999/xlink" xml:space="preserve" style="fill-rule:evenodd;clip-rule:evenodd;stroke-linejoin:round;stroke-miterlimit:1.41421;" data-global-elvn="enableViewport, disableClick, none, startInvisible, notResponsive, 0, notLoop, 500"><g><path d="M13.5,1.5c-6.616,0 -12,5.383 -12,12c0,6.834 7.626,18.75 12,18.75c4.374,0 12,-11.916 12,-18.75c0,-6.617 -5.384,-12 -12,-12M13.5,33.75c-5.563,0 -13.5,-13.098 -13.5,-20.25c0,-7.444 6.056,-13.5 13.5,-13.5c7.444,0 13.5,6.056 13.5,13.5c0,7.152 -7.937,20.25 -13.5,20.25" style="fill:#232323;fill-rule:nonzero;" data-elvn="maskGradB, in, 1500, 500, linear" class="elvn-layer"></path><path d="M14.063,22.5l0,-1.5c3.75,0 7.219,-3.364 7.219,-7.5c0,-4.136 -3.506,-7.5 -7.641,-7.5c-4.136,0 -7.641,3 -7.641,7.5l-1.5,0c0,-5.25 4.037,-9 9,-9c4.963,0 9.282,4.037 9.282,9c0,4.963 -4.219,9 -8.719,9" style="fill:#232323;fill-rule:nonzero;" data-elvn="maskGradB, in, 1000, 500, linear" class="elvn-layer"></path><path d="M13.5,11.25c-1.241,0 -2.25,1.01 -2.25,2.25c0,1.24 1.009,2.25 2.25,2.25c1.24,0 2.25,-1.01 2.25,-2.25c0,-1.24 -1.01,-2.25 -2.25,-2.25M13.5,17.25c-2.068,0 -3.75,-1.682 -3.75,-3.75c0,-2.068 1.682,-3.75 3.75,-3.75c2.068,0 3.75,1.682 3.75,3.75c0,2.068 -1.682,3.75 -3.75,3.75" style="fill:#232323;fill-rule:nonzero;" data-elvn="maskGradL, in, 250, 500, linear" class="elvn-layer"></path><rect x="17.063" y="12.75" width="5.25" height="1.5" style="fill:#232323;fill-rule:nonzero;" data-elvn="maskGradL, in, 500, 500, linear" class="elvn-layer"></rect></g></svg>