<svg width="100%" height="100%" viewBox="0 0 34 35" version="1.1" xmlns="http://www.w3.org/2000/svg" xmlns:xlink="http://www.w3.org/1999/xlink" xml:space="preserve" style="fill-rule:evenodd;clip-rule:evenodd;stroke-linejoin:round;stroke-miterlimit:1.41421;" data-global-elvn="enableViewport, disableClick, none, startInvisible, notResponsive, 0, notLoop, 500"><path d="M12.829,18.456c1.232,0 2.33,0.782 2.733,1.946l0.058,0.169c0.239,0.69 0.836,0.936 1.314,0.936c0.47,0 1.059,-0.24 1.305,-0.912l0.062,-0.169c0.415,-1.136 1.506,-1.898 2.715,-1.898c0.439,0 0.863,0.098 1.261,0.291l0.162,0.079c0.655,0.316 1.412,0.077 1.79,-0.516c0.149,-0.233 0.358,-0.716 0.078,-1.319l-0.076,-0.164c-0.344,-0.74 -0.358,-1.595 -0.04,-2.346c0.32,-0.751 0.945,-1.335 1.716,-1.602l0.168,-0.058c0.685,-0.237 0.933,-0.828 0.938,-1.302c0.004,-0.474 -0.233,-1.068 -0.913,-1.317l-0.168,-0.061c-0.767,-0.281 -1.382,-0.875 -1.688,-1.631c-0.305,-0.758 -0.276,-1.612 0.08,-2.347l0.079,-0.162c0.294,-0.603 0.088,-1.094 -0.062,-1.331c-0.371,-0.594 -1.119,-0.843 -1.773,-0.536l-0.162,0.076c-0.387,0.179 -0.795,0.27 -1.217,0.27c-1.232,0 -2.33,-0.783 -2.733,-1.946l-0.058,-0.171c-0.239,-0.689 -0.835,-0.935 -1.314,-0.935c-0.47,0 -1.059,0.24 -1.305,0.912l-0.061,0.169c-0.416,1.136 -1.507,1.899 -2.717,1.899c-0.438,0 -0.863,-0.098 -1.26,-0.291l-0.162,-0.079c-0.654,-0.317 -1.412,-0.077 -1.79,0.515c-0.149,0.234 -0.358,0.717 -0.078,1.32l0.075,0.161c0.344,0.742 0.359,1.597 0.041,2.348c-0.32,0.752 -0.945,1.335 -1.716,1.603l-0.171,0.058c-0.683,0.236 -0.93,0.827 -0.935,1.302c-0.004,0.473 0.234,1.068 0.913,1.317l0.168,0.061c0.767,0.281 1.382,0.875 1.688,1.631c0.305,0.758 0.276,1.612 -0.08,2.347l-0.08,0.163c-0.293,0.601 -0.087,1.092 0.063,1.329c0.371,0.595 1.119,0.842 1.773,0.537l0.162,-0.076c0.387,-0.179 0.795,-0.27 1.217,-0.27M16.935,23.007c-1.251,0 -2.323,-0.763 -2.732,-1.945l-0.059,-0.169c-0.26,-0.751 -1.165,-1.148 -1.899,-0.806l-0.162,0.075c-1.323,0.615 -2.919,0.114 -3.678,-1.1c-0.534,-0.854 -0.585,-1.868 -0.139,-2.784l0.079,-0.163c0.174,-0.357 0.187,-0.757 0.038,-1.126c-0.149,-0.369 -0.437,-0.648 -0.811,-0.785l-0.168,-0.061c-1.165,-0.426 -1.909,-1.501 -1.899,-2.739c0.011,-1.239 0.775,-2.301 1.946,-2.707l0.17,-0.058c0.376,-0.131 0.669,-0.404 0.825,-0.771c0.155,-0.366 0.148,-0.767 -0.02,-1.128l-0.075,-0.162c-0.425,-0.915 -0.362,-1.92 0.174,-2.76c0.774,-1.214 2.394,-1.696 3.71,-1.057l0.16,0.079c0.725,0.35 1.642,-0.03 1.914,-0.775l0.061,-0.167c0.422,-1.153 1.487,-1.898 2.714,-1.898c1.251,0 2.323,0.764 2.731,1.945l0.059,0.171c0.26,0.749 1.165,1.147 1.899,0.805l0.162,-0.075c1.323,-0.615 2.918,-0.114 3.678,1.1c0.534,0.852 0.585,1.867 0.139,2.783l-0.079,0.162c-0.174,0.359 -0.188,0.759 -0.038,1.128c0.149,0.369 0.437,0.648 0.811,0.784l0.168,0.062c1.165,0.425 1.909,1.501 1.899,2.739c-0.011,1.239 -0.775,2.301 -1.946,2.706l-0.168,0.059c-0.378,0.13 -0.671,0.404 -0.826,0.77c-0.156,0.366 -0.149,0.768 0.019,1.128l0.075,0.164c0.425,0.914 0.362,1.919 -0.174,2.758c-0.773,1.214 -2.394,1.697 -3.71,1.058l-0.16,-0.079c-0.725,-0.353 -1.642,0.029 -1.914,0.773l-0.062,0.169c-0.421,1.152 -1.486,1.897 -2.712,1.897" style="fill:#232323;fill-rule:nonzero;" data-elvn="maskGradT, in, 750, 750, linear" class="elvn-layer"/><path d="M11.25,34.257c-0.097,0 -0.194,-0.018 -0.287,-0.057c-0.28,-0.115 -0.463,-0.39 -0.463,-0.693l0,-13.5c0,-0.414 0.336,-0.75 0.75,-0.75c0.414,0 0.75,0.336 0.75,0.75l0,11.69l4.077,-4.077c0.284,-0.284 0.738,-0.294 1.035,-0.025l4.638,4.217l0,-8.805c0,-0.414 0.336,-0.75 0.75,-0.75c0.414,0 0.75,0.336 0.75,0.75l0,10.5c0,0.297 -0.175,0.566 -0.446,0.686c-0.273,0.119 -0.588,0.068 -0.809,-0.131l-5.363,-4.876l-4.852,4.852c-0.143,0.143 -0.335,0.219 -0.53,0.219" style="fill:#232323;fill-rule:nonzero;" data-elvn="maskGradL, in, 1250, 500, linear" class="elvn-layer"/><path d="M25.501,9.507c-0.255,0 -0.503,-0.129 -0.644,-0.363c-0.213,-0.356 -0.098,-0.816 0.257,-1.029l7.5,-4.5c0.355,-0.214 0.816,-0.099 1.029,0.256c0.214,0.356 0.098,0.816 -0.257,1.029l-7.5,4.5c-0.12,0.073 -0.254,0.107 -0.385,0.107" style="fill:#232323;fill-rule:nonzero;" data-elvn="maskGradR, in, 500, 500, linear" class="elvn-layer"/><path d="M8.249,9.507c-0.131,0 -0.264,-0.034 -0.385,-0.107l-7.5,-4.5c-0.355,-0.213 -0.47,-0.673 -0.257,-1.029c0.213,-0.355 0.673,-0.471 1.029,-0.256l7.5,4.5c0.355,0.213 0.471,0.673 0.257,1.029c-0.14,0.234 -0.389,0.363 -0.644,0.363" style="fill:#232323;fill-rule:nonzero;" data-elvn="maskGradL, in, 250, 500, linear" class="elvn-layer"/></svg>