<?xml version="1.0" standalone="no"?><!DOCTYPE svg PUBLIC "-//W3C//DTD SVG 1.1//EN" "http://www.w3.org/Graphics/SVG/1.1/DTD/svg11.dtd"><svg width="100%" height="100%" viewBox="0 0 35 34" version="1.1" xmlns="http://www.w3.org/2000/svg" xmlns:xlink="http://www.w3.org/1999/xlink" xml:space="preserve" style="fill-rule:evenodd;clip-rule:evenodd;stroke-linejoin:round;stroke-miterlimit:1.41421;"><g><path d="M9.235,16.121l9.547,9.546l14.318,-14.319l-9.545,-9.546l-14.32,14.319ZM18.782,27.478c-0.192,0 -0.384,-0.074 -0.531,-0.22l-10.606,-10.606c-0.141,-0.141 -0.22,-0.331 -0.22,-0.531c0,-0.199 0.079,-0.39 0.22,-0.53l15.38,-15.38c0.281,-0.281 0.779,-0.281 1.06,0l10.606,10.607c0.293,0.293 0.293,0.767 0,1.061l-15.379,15.379c-0.147,0.146 -0.339,0.22 -0.53,0.22" style="fill:#232323;fill-rule:nonzero;"/><path d="M22.494,7.105l2.121,2.122l1.591,-1.591l-2.121,-2.121l-1.591,1.59ZM24.615,11.038c-0.199,0 -0.389,-0.079 -0.53,-0.22l-3.182,-3.182c-0.141,-0.141 -0.22,-0.331 -0.22,-0.531c0,-0.199 0.079,-0.39 0.22,-0.53l2.652,-2.651c0.293,-0.293 0.767,-0.293 1.06,0l3.182,3.181c0.293,0.294 0.293,0.768 0,1.061l-2.651,2.652c-0.141,0.141 -0.331,0.22 -0.531,0.22" style="fill:#232323;fill-rule:nonzero;"/><path d="M12.948,17.402c-0.314,0 -0.607,-0.199 -0.711,-0.512c-0.113,-0.334 0.025,-0.691 0.31,-0.872c0.368,-0.309 2.641,-2.609 4.636,-4.663c0.287,-0.295 0.764,-0.304 1.061,-0.014c0.297,0.289 0.303,0.764 0.015,1.061c-4.701,4.836 -4.857,4.889 -5.073,4.961c-0.079,0.026 -0.159,0.039 -0.238,0.039" style="fill:#232323;fill-rule:nonzero;"/><path d="M15.069,19.523c-0.315,0 -0.608,-0.2 -0.712,-0.515c-0.112,-0.339 0.031,-0.702 0.325,-0.878c0.297,-0.244 1.753,-1.726 3.028,-3.058c0.286,-0.299 0.762,-0.309 1.06,-0.023c0.3,0.287 0.31,0.762 0.024,1.061c-3.114,3.25 -3.288,3.308 -3.489,3.375c-0.078,0.025 -0.158,0.038 -0.236,0.038" style="fill:#232323;fill-rule:nonzero;"/><path d="M0.75,24.296c-0.192,0 -0.384,-0.073 -0.53,-0.22c-0.293,-0.293 -0.293,-0.767 0,-1.06l4.773,-4.773c0.293,-0.293 0.768,-0.293 1.06,0c0.294,0.292 0.294,0.767 0,1.06l-4.773,4.773c-0.146,0.147 -0.338,0.22 -0.53,0.22" style="fill:#232323;fill-rule:nonzero;"/><path d="M5.523,25.887c-0.192,0 -0.384,-0.074 -0.53,-0.22c-0.293,-0.293 -0.293,-0.767 0,-1.06l3.182,-3.182c0.293,-0.293 0.768,-0.293 1.06,0c0.293,0.293 0.293,0.767 0,1.061l-3.181,3.181c-0.147,0.146 -0.339,0.22 -0.531,0.22" style="fill:#232323;fill-rule:nonzero;"/><path d="M10.297,27.478c-0.192,0 -0.384,-0.074 -0.531,-0.22c-0.293,-0.293 -0.293,-0.767 0,-1.061l1.591,-1.59c0.293,-0.294 0.768,-0.294 1.061,0c0.293,0.292 0.293,0.767 0,1.06l-1.591,1.591c-0.146,0.146 -0.338,0.22 -0.53,0.22" style="fill:#232323;fill-rule:nonzero;"/><path d="M6.054,31.721c-0.192,0 -0.384,-0.074 -0.531,-0.22c-0.293,-0.293 -0.293,-0.767 0,-1.061l1.591,-1.59c0.293,-0.294 0.768,-0.294 1.061,0c0.293,0.292 0.293,0.767 0,1.06l-1.591,1.591c-0.146,0.146 -0.338,0.22 -0.53,0.22" style="fill:#232323;fill-rule:nonzero;"/><path d="M10.297,33.842c-0.192,0 -0.384,-0.074 -0.531,-0.22c-0.293,-0.293 -0.293,-0.767 0,-1.061l4.773,-4.772c0.293,-0.293 0.768,-0.293 1.06,0c0.293,0.293 0.293,0.767 0,1.061l-4.772,4.772c-0.146,0.146 -0.338,0.22 -0.53,0.22" style="fill:#232323;fill-rule:nonzero;"/></g></svg>